<?xml version="1.0" encoding="UTF-8" standalone="no"?>
<svg
   width="484.98547pt"
   height="630.94202pt"
   viewBox="0 0 484.98547 630.94201"
   version="1.1"
   id="svg64"
   sodipodi:docname="icon_notification.svg"
   inkscape:version="1.1.2 (0a00cf5339, 2022-02-04)"
   xmlns:inkscape="http://www.inkscape.org/namespaces/inkscape"
   xmlns:sodipodi="http://sodipodi.sourceforge.net/DTD/sodipodi-0.dtd"
   xmlns="http://www.w3.org/2000/svg"
   xmlns:svg="http://www.w3.org/2000/svg">
  <defs
     id="defs68" />
  <sodipodi:namedview
     id="namedview66"
     pagecolor="#ffffff"
     bordercolor="#666666"
     borderopacity="1.0"
     inkscape:pageshadow="2"
     inkscape:pageopacity="0.0"
     inkscape:pagecheckerboard="0"
     inkscape:document-units="pt"
     showgrid="false"
     fit-margin-top="0"
     fit-margin-left="0"
     fit-margin-right="0"
     fit-margin-bottom="0"
     inkscape:zoom="0.18536031"
     inkscape:cx="105.20051"
     inkscape:cy="1308.2628"
     inkscape:window-width="1920"
     inkscape:window-height="999"
     inkscape:window-x="0"
     inkscape:window-y="0"
     inkscape:window-maximized="1"
     inkscape:current-layer="svg64" />
  <g
     id="#dceefdff"
     transform="translate(-266.81055,-187.84812)"
     style="fill:#000000;fill-opacity:1">
    <path
       id="path2"
       style="fill:#000000;fill-opacity:1;stroke-width:1.33333"
       d="M 225.62695,0.00195313 C 217.28839,0.11497396 208.82917,4.2459117 204.6875,11.642578 c -5.57333,9.8 -6.11956,21.519531 -5.21289,32.519531 1.84,17.56 6.52034,34.67948 9.01367,52.132813 0.92,5.639998 -0.28117,11.959788 -5.20117,15.453128 -17.41333,13.94666 -34.45263,28.4275 -50.2793,44.1875 -4.73333,4.81333 -8.77323,10.42643 -11.22656,16.75976 -3.06667,8.10667 -2.08099,17.97268 3.65234,24.66602 5.96,7 14.97302,10.25458 23.67969,12.28125 16.25333,3.65333 32.89508,4.92005 49.45508,6.38672 -1.82667,-0.17334 -3.64141,-0.32141 -5.44141,-0.44141 -2.82666,5.50667 -7.35872,9.80104 -11.02539,14.73438 -69.68,92.93333 -96.14659,216.26557 -72.91992,329.8789 9.37333,44 25.82513,86.70797 50.0918,124.66797 26.50666,40.48 60.93458,76.23935 102.28125,101.66602 43.4,27.24 92.93294,44.13408 143.59961,51.10742 52.50666,7.01333 106.31968,3.74583 157.67968,-9.1875 40.53334,-10.69334 80.02636,-26.17211 115.67969,-48.41211 18.54667,-11.37333 36.46643,-24.53461 49.75977,-41.97461 14.44,-18.01333 21.08026,-41.69294 18.93359,-64.59961 -2.06667,-19.21333 -9.947,-37.93391 -23.01367,-52.25391 -14.34667,-15.89333 -33.91938,-27.19898 -55.05274,-30.95898 -18.45333,-3.64 -37.81223,-0.73469 -54.8789,6.94531 -17.58667,7.84 -32.69378,20.09352 -49.78711,28.85352 -33.54667,18.01333 -71.90625,26.60166 -109.90625,25.375 -27.98667,-1.06667 -56.28044,-7.25417 -80.78711,-21.1875 -13.6,-7.74667 -26.08047,-17.74732 -35.48047,-30.33399 -12.51953,-19.16015 0,0 -12.51953,-19.16015 -5.72,-8.06667 -9.69289,-17.17271 -13.21289,-26.35938 -5.4,-14.4 -9.18685,-29.42575 -10.85352,-44.73242 -4.65333,-35.72 -1.34778,-72.57439 10.18555,-106.73437 8,-22.96 20.59984,-44.77376 38.83984,-61.09376 14.44,-13.34665 32.01407,-22.91927 50.41407,-29.58593 31.12,-10.86667 64.85312,-13.79982 97.45312,-9.14649 26.76,3.93334 52.3594,14.1855 75.05274,28.79883 15.14666,9.84 30.34768,20.36102 48.04101,25.04102 37.61334,11.2 81.30555,-4.58615 103.18555,-37.13282 15.77333,-22.37333 20.33323,-51.8945 13.22656,-78.20117 -5.64,-18.96 -17.87963,-35.35867 -32.29297,-48.63867 -35.16,-31.18667 -78.62528,-51.44075 -123.25195,-65.10742 -55.54667,-16.49333 -114.5481,-23.77289 -172.13477,-15.21289 -6.93333,0.97333 -13.72002,2.77338 -20.69336,3.38672 -1.69333,-3.56 -0.23901,-7.54783 0.34766,-11.20118 3.28,-13.279985 7.34651,-26.345594 10.83984,-39.572261 2.32,-9.453333 4.67881,-19.25401 3.10547,-29.027343 -1.10666,-8.28 -5.18578,-16.50573 -12.42578,-21.039063 -8.46666,-5.733333 -19.49325,-5.6275512 -28.91992,-2.574219 -19.66667,6.2 -37.97242,15.852631 -56.73242,24.279297 -6.22667,2.72 -13.58758,6.17513 -20.26758,2.841797 -16.81333,-8.6 -32.54727,-19.133802 -48.94727,-28.480469 C 248.0869,6.4558602 239.18164,1.3611719 229.18164,0.20117188 228.00831,0.05117186 226.81818,-0.01419271 225.62695,0.00195313 Z M 321.76953,81.226562 c 4.93178,0.05085 9.87927,2.205912 13.71094,5.267579 10.28,7.706666 14.5075,21.932209 11.1875,34.185549 -1.62667,6.26666 -6.73451,11.73333 -13.20117,13 -7.86667,1.74666 -16.14638,-1.80003 -21.37305,-7.69336 -6.8,-7.69334 -10.84089,-18.46542 -8.57422,-28.718752 1.29333,-6.346667 5.49396,-12.266693 11.64063,-14.693359 2.12916,-0.958334 4.36766,-1.370767 6.60937,-1.347657 z m -68.02734,43.533208 c 11.88396,0.1533 22.08372,10.70942 25.52539,21.74609 3.06666,9.13333 1.66703,20.80135 -6.29297,27.05469 -5.73333,5.02666 -14.34693,4.73302 -20.93359,1.67968 -12.65334,-6.02666 -19.77443,-21.24018 -17.1211,-34.85351 1.34667,-6.98667 6.77396,-13.06736 13.64063,-15.02734 1.75166,-0.43167 3.48393,-0.62152 5.18164,-0.59961 z m 85.53906,26.57421 c 4.56,5.10667 4.29333,12.50516 3,18.78516 -1.94667,9.89333 -10.58771,18.44039 -20.73437,19.40039 -9.52,1.13333 -18.81386,-3.54575 -24.86719,-10.73242 1.10666,-1.14667 2.18781,-2.34724 3.50781,-3.25391 12.76,-8.49333 26.02708,-16.18588 39.09375,-24.19922 z"
       transform="matrix(0.75,0,0,0.75,176.09441,187.84845)"
       sodipodi:nodetypes="sccccccccccccccccccccccccccccccccccccccccccccccccccsccccccsccccccccsccccs" />
    <path
       fill="#dceefd"
       opacity="1"
       d="m 416.51,263.61 c 2.84,-1.24 5.91,1.44 5.8,4.36 0.44,2.75 -2.87,5.02 -5.28,3.64 -3.05,-1.33 -3.86,-6.51 -0.52,-8 z"
       id="path4"
       style="fill:#000000;fill-opacity:1" />
    <path
       fill="#dceefd"
       opacity="1"
       d="m 365.25,296.15 c 4.55,-2.52 9,5.12 4.69,7.84 -4.67,2.69 -8.97,-4.99 -4.69,-7.84 z"
       id="path6"
       style="fill:#000000;fill-opacity:1" />
  </g>
  <g
     id="#1a1c1fff"
     transform="translate(-266.81055,-187.84812)"
     style="fill:#000000;fill-opacity:1" />
  <g
     id="#57a0f7ff"
     transform="translate(-266.81055,-187.84812)"
     style="fill:#000000;fill-opacity:1" />
  <g
     id="#437ec3ff"
     transform="translate(-266.81055,-187.84812)"
     style="fill:#000000;fill-opacity:1" />
</svg>
