<?xml version="1.0" encoding="UTF-8" standalone="no"?>
<svg
   width="664.24414pt"
   height="651.84241pt"
   viewBox="0 0 664.24414 651.84241"
   version="1.1"
   id="svg64"
   sodipodi:docname="icon_star.svg"
   inkscape:version="1.1.2 (0a00cf5339, 2022-02-04)"
   inkscape:export-filename="/home/mguillon/dev/nativescript/conty/icon_star.png"
   inkscape:export-xdpi="48"
   inkscape:export-ydpi="48"
   xmlns:inkscape="http://www.inkscape.org/namespaces/inkscape"
   xmlns:sodipodi="http://sodipodi.sourceforge.net/DTD/sodipodi-0.dtd"
   xmlns="http://www.w3.org/2000/svg"
   xmlns:svg="http://www.w3.org/2000/svg">
  <defs
     id="defs68" />
  <sodipodi:namedview
     id="namedview66"
     pagecolor="#ffffff"
     bordercolor="#666666"
     borderopacity="1.0"
     inkscape:pageshadow="2"
     inkscape:pageopacity="0.0"
     inkscape:pagecheckerboard="0"
     inkscape:document-units="pt"
     showgrid="false"
     fit-margin-top="0"
     fit-margin-left="0"
     fit-margin-right="0"
     fit-margin-bottom="0"
     inkscape:zoom="0.44729715"
     inkscape:cx="998.21785"
     inkscape:cy="481.78264"
     inkscape:window-width="1920"
     inkscape:window-height="999"
     inkscape:window-x="0"
     inkscape:window-y="0"
     inkscape:window-maximized="1"
     inkscape:current-layer="svg64" />
  <g
     id="#57a0f7ff"
     transform="translate(-176.09441,-187.84845)" />
  <path
     fill="#1a1c1f"
     opacity="1"
     d="m 348.20101,281.38795 c 5.67543,-2.5545 12.28381,-0.44426 16.92634,3.26531 8.56312,6.41957 12.08394,18.27023 9.31837,28.47712 -1.355,5.22006 -5.6088,9.77374 -10.99546,10.82886 -6.55284,1.45495 -13.44999,-1.49938 -17.80375,-6.40847 -5.66432,-6.40846 -9.0296,-15.38253 -7.14149,-23.92344 1.07733,-5.2867 4.57589,-10.218 9.69599,-12.23938 m 0.1666,16.80416 c -3.70958,1.65487 -2.80995,7.40805 0.57754,8.88522 2.67667,1.5327 6.35293,-0.98848 5.86424,-4.04278 0.12217,-3.2431 -3.28753,-6.21965 -6.44178,-4.84244 z"
     id="path43-8"
     style="stroke-width:1.11065" />
  <path
     fill="#1a1c1f"
     opacity="1"
     d="m 292.72395,317.02876 c 11.67295,-2.87659 22.30189,7.10817 25.57831,17.61494 2.5545,7.60796 1.38832,17.32617 -5.24228,22.53512 -4.7758,4.18716 -11.95072,3.94282 -17.43723,1.39942 -10.54009,-5.02014 -16.47097,-17.69268 -14.26077,-29.03244 1.12176,-5.81981 5.64211,-10.88439 11.36197,-12.51704 m -1.28836,17.30395 c -4.75359,3.16536 0.0222,11.69517 5.20896,8.70751 4.78691,-3.02097 -0.15549,-11.50635 -5.20896,-8.70751 z"
     id="path45-8"
     style="stroke-width:1.11065" />
  <path
     fill="#1a1c1f"
     opacity="1"
     d="m 335.72839,358.82259 c 10.62883,-7.07485 21.67993,-13.48332 32.5642,-20.15833 3.79854,4.25379 3.57641,10.41791 2.49897,15.64908 -1.62144,8.24104 -8.81847,15.36032 -17.27053,16.15999 -7.93005,0.94405 -15.67141,-2.95434 -20.71377,-8.94075 0.92196,-0.95516 1.82158,-1.95475 2.92113,-2.70999 z"
     id="path47-1"
     style="stroke-width:1.11065" />
  <path
     d="m 251.85174,223.74511 c 3.94292,-7.04153 12.58379,-10.52898 20.40278,-9.52939 8.32989,0.96627 15.74893,5.20895 22.95718,9.20732 13.66102,7.78565 26.76671,16.55982 40.77192,23.72352 5.56436,2.77662 11.69516,-0.1 16.88202,-2.36569 15.62687,-7.01933 30.87618,-15.06044 47.25818,-20.22497 7.85242,-2.5434 17.03751,-2.63227 24.09004,2.14355 6.03084,3.77621 9.42944,10.62894 10.35139,17.52608 1.31046,8.14108 -0.6554,16.30437 -2.58793,24.17891 -2.9098,11.01765 -6.2974,21.90204 -9.0296,32.96414 -0.48858,3.04318 -1.6993,6.36403 -0.28866,9.32947 2.48775,4.58698 6.11958,8.38541 9.62935,12.19496 10.01797,10.7289 20.73587,20.81361 30.16531,32.07562 4.02056,4.83133 7.88563,10.34018 8.3521,16.81527 0.5219,4.6092 -1.1884,9.06292 -3.43191,12.98352 -5.59769,7.56355 -14.99381,10.78443 -24.03462,11.63963 -18.12584,1.98808 -36.41828,1.27725 -54.59954,2.26573 -5.7755,0.25545 -9.54061,5.41998 -11.77302,10.19578 -8.06339,17.29285 -15.14924,35.14104 -25.24506,51.40098 -4.15384,6.71944 -10.14037,13.26119 -18.30366,14.59396 -7.98547,1.5327 -16.22662,-2.41011 -20.88014,-8.88522 -5.35335,-7.3303 -9.09624,-15.69351 -12.58369,-24.0234 -4.37597,-11.60631 -8.71873,-23.23482 -12.76139,-34.96331 -1.58834,-4.46482 -3.89839,-9.38502 -8.71873,-11.03989 -4.89797,-1.3661 -10.0625,-1.23282 -15.06044,-1.95473 -13.7943,-1.22173 -27.65523,-2.27685 -41.19397,-5.32004 -7.25266,-1.68819 -14.76056,-4.39818 -19.72517,-10.2291 -4.77581,-5.57548 -5.59769,-13.7943 -3.04319,-20.54706 2.0436,-5.2756 5.40887,-9.95143 9.35158,-13.9609 13.18355,-13.1279 27.37768,-25.18958 41.88268,-36.80699 4.09831,-2.90992 5.09789,-8.17441 4.33154,-12.87245 -2.0768,-14.53844 -5.97519,-28.79921 -7.50789,-43.4265 -0.75536,-9.16288 -0.29988,-18.92551 4.34254,-27.0888 m 96.34916,57.64284 c -5.12022,2.02138 -8.61877,6.95268 -9.69599,12.23939 -1.88822,8.5409 1.47705,17.51497 7.14138,23.92342 4.35387,4.9091 11.25101,7.86342 17.80386,6.40848 5.38655,-1.05512 9.64046,-5.60881 10.99545,-10.82886 2.76558,-10.2069 -0.75524,-22.05755 -9.31837,-28.47712 -4.64252,-3.70957 -11.25101,-5.8198 -16.92633,-3.26531 m -55.47706,35.64082 c -5.71997,1.63266 -10.24021,6.69723 -11.36197,12.51703 -2.2102,11.33977 3.72068,24.0123 14.26077,29.03246 5.48662,2.54338 12.66143,2.78772 17.43712,-1.39944 6.63059,-5.20895 7.79678,-14.92715 5.24239,-22.53512 -3.27653,-10.50676 -13.90547,-20.49153 -25.57831,-17.61493 m 43.00444,41.79382 c -1.09955,0.75524 -1.99917,1.75483 -2.92102,2.70999 5.04225,5.98641 12.78361,9.8848 20.71366,8.94076 8.45195,-0.79968 15.64898,-7.91896 17.27064,-16.15999 1.07722,-5.23117 1.29946,-11.3953 -2.49897,-15.64909 -10.8845,6.67501 -21.93537,13.08349 -32.56431,20.15833 z"
     style="fill:#f9ad0c;stroke-width:0.832989"
     id="path1510" />
  <path
     fill="#f9ad0c"
     opacity="1"
     d="m 494.94172,121.08422 c 2.3483,-2.16644 2.924,-5.60548 5.1965,-7.82494 1.4467,-0.7878 3.4844,-0.49238 4.598,0.77264 1.9922,1.86345 2.4997,5.04493 5.0298,6.3554 2.1058,0.61358 4.3556,0.49238 6.4766,1.09838 1.6134,0.41662 2.7118,2.30279 2.0983,3.90111 -0.9999,2.55276 -3.1665,4.40863 -4.2421,6.91594 -0.5075,2.53004 0.7878,5.02221 0.5151,7.55225 -0.3409,1.46954 -1.7195,2.18917 -3.0679,2.51489 -3.1966,-0.053 -5.9993,-2.21947 -9.2111,-2.03009 -2.0907,0.70447 -3.9238,1.97707 -6.0069,2.70426 -1.9999,0.74992 -4.4238,-1.00747 -4.1814,-3.15876 -0.2272,-2.48459 0.6514,-5.43883 -1.2121,-7.46892 -1.8103,-1.93919 -3.9843,-3.63599 -4.8782,-6.2342 1.2423,-3.89354 5.8934,-3.48449 8.8854,-5.09796 z"
     id="path11"
     style="stroke-width:0.757497" />
  <path
     fill="#f9ad0c"
     opacity="1"
     d="m 174.21889,151.32402 c 2.22704,-1.11353 4.83283,-0.15908 6.57508,1.40137 2.77244,2.18159 5.39338,5.25703 9.17329,5.43125 3.33298,0.0152 6.59022,-0.85597 9.91563,-1.05292 2.10585,0.0227 4.49954,1.51499 4.37076,3.86323 0,4.18139 -2.72699,7.85525 -2.66639,12.05178 0.31058,4.16624 3.65871,7.30985 4.19654,11.38518 0.47722,2.37854 -1.37107,4.75709 -3.75719,4.99191 -4.17381,0.4848 -8.63547,-0.56812 -12.56688,1.32562 -3.12088,1.86344 -5.12825,5.01463 -7.83252,7.36287 -2.05281,1.79527 -5.6282,0.89385 -6.73415,-1.55287 -1.45439,-3.67386 -1.59074,-7.95372 -4.00716,-11.20338 -3.18148,-2.80274 -7.73404,-3.12089 -11.18065,-5.48428 -1.93162,-1.38622 -1.9695,-4.56771 -0.19695,-6.09785 3.14361,-2.96939 7.34014,-4.72678 10.06713,-8.17339 1.38622,-3.62084 1.41652,-7.60527 2.26492,-11.36246 0.20453,-1.31047 1.1514,-2.42399 2.37854,-2.88606 z"
     id="path13"
     style="stroke-width:0.757497" />
  <path
     fill="#f9ad0c"
     opacity="1"
     d="m 520.76482,336.99362 c 2.2194,-1.24987 4.9994,-0.43935 6.8857,1.07565 3.689,2.92393 7.325,6.18117 11.8169,7.80979 4.5602,0.8484 9.1279,-1.22715 13.7107,-0.68932 2.7952,0.37875 5.2268,3.10574 4.7798,5.9918 -0.7121,4.67376 -3.1208,8.93847 -3.6208,13.65767 0.3863,4.96161 3.6663,9.02937 5.1434,13.67283 0.6439,2.28764 -0.2122,4.98433 -2.2498,6.28722 -1.8255,1.37107 -4.2268,1.11352 -6.3705,1.11352 -3.5375,-0.15907 -7.0826,0.2424 -10.5671,0.8181 -4.492,2.14372 -7.2569,6.48417 -10.9913,9.58234 -2.4543,2.11341 -6.878,1.24229 -7.931,-1.95435 -1.7195,-4.63588 -2.4392,-9.68081 -4.8783,-14.02884 -3.3406,-4.00716 -8.8552,-4.81768 -13.1426,-7.40075 -2.9845,-1.71194 -3.2875,-6.40842 -0.7347,-8.62789 3.8404,-3.47691 8.7945,-5.71153 12.1123,-9.76414 1.6969,-4.12836 2.068,-8.64304 2.9543,-12.99107 0.3408,-1.85587 1.2877,-3.72689 3.083,-4.55256 z"
     id="path15"
     style="stroke-width:0.757497" />
  <path
     fill="#f9ad0c"
     opacity="1"
     d="m 125.28315,345.36396 c 2.97696,-1.64377 5.22673,1.7271 5.83272,4.24956 0.74235,3.65114 4.94646,3.94656 7.70375,5.33278 1.51499,0.55297 2.56792,2.19674 1.98464,3.80264 -1.23472,2.61336 -3.92383,4.13593 -5.3252,6.62052 -0.74235,2.71184 0.99989,6.24178 -1.6059,8.27187 -2.24219,2.04524 -4.99948,-0.59842 -7.27954,-1.2726 -2.71184,-1.46954 -5.53731,0.35603 -8.24157,0.8484 -1.6362,0.50752 -3.55266,-0.59085 -3.80264,-2.31794 -0.40147,-2.74214 0.8181,-5.52973 0.1818,-8.26429 -1.00747,-2.00737 -2.63609,-3.62842 -3.56023,-5.67366 -0.52268,-1.23472 -0.1515,-2.86334 1.02262,-3.58296 2.21189,-1.30289 5.02978,-0.53025 7.24924,-1.79527 2.46187,-1.55287 3.55267,-4.48438 5.84031,-6.21905 z"
     id="path17"
     style="stroke-width:0.757497" />
  <path
     fill="#f9ad0c"
     opacity="1"
     d="m 432.30222,473.33396 c 3.136,-1.7574 4.9843,2.13614 6.9387,3.87838 2.5073,3.09816 7.0068,1.0908 10.158,2.68912 2.9694,2.63609 -0.7045,6.0827 -1.7272,8.79454 -2.2648,3.23451 2.212,6.78717 0.2728,10.01411 -1.9998,2.75729 -5.5524,0.65145 -8.2265,0.4848 -3.9843,-1.26502 -6.4917,4.33288 -10.3776,2.90879 -3.4013,-2.3028 -0.7878,-7.66587 -4.0148,-10.16561 -1.568,-1.56045 -4.598,-2.53005 -4.2268,-5.21916 0.197,-2.88606 3.583,-3.50721 5.6358,-4.73436 3.6814,-1.43924 2.7118,-6.43872 5.5676,-8.65061 z"
     id="path19"
     style="stroke-width:0.757497" />
  <path
     fill="#26a56c"
     opacity="1"
     d="m 364.06259,138.87887 c 3.3557,-1.6968 7.3402,0.26512 9.2794,3.18906 4.6358,6.67355 4.6435,15.86199 0.9772,22.96731 -1.0757,2.17402 -3.439,3.89354 -5.9464,3.37086 -3.28,-0.56055 -5.4843,-3.42388 -6.8402,-6.24935 -2.3483,-5.13583 -3.1815,-11.02916 -1.9544,-16.56646 0.6818,-2.61337 1.8938,-5.4767 4.4844,-6.71142 z"
     id="path22"
     style="stroke-width:0.757497" />
  <path
     fill="#26a56c"
     opacity="1"
     d="m 391.07499,149.96862 c 5.5676,-2.76486 12.3245,-3.79506 18.233,-1.51499 2.4846,0.87112 4.3632,3.39359 3.9541,6.09028 -0.7272,5.31005 -2.6512,10.51406 -5.613,14.98329 -4.3632,6.55992 -12.4381,10.41558 -20.2782,9.66566 -2.4467,-0.1818 -4.4844,-1.62104 -6.416,-2.99211 4.7343,-3.67386 9.9383,-6.71143 14.6803,-10.35499 1.4998,-0.95444 -0.015,-2.57549 -0.5833,-3.63598 -5.4237,3.40873 -10.4535,7.39317 -15.8999,10.75645 -1.2347,-2.88606 -2.477,-6.12057 -1.3786,-9.25661 2.1892,-6.22663 7.4386,-10.96856 13.3016,-13.741 z"
     id="path24"
     style="stroke-width:0.757497" />
  <path
     fill="#26a56c"
     opacity="1"
     d="m 494.2643,258.3746 c 3.1512,-1.59832 6.8099,0.35603 8.7567,2.94667 4.757,6.34782 5.1206,15.20296 2.0452,22.35374 -1.2271,2.70426 -4.1284,5.0828 -7.2568,4.27985 -3.6284,-1.22714 -5.8706,-4.7798 -7.1508,-8.19611 -1.5757,-4.66619 -2.1438,-9.81717 -0.9394,-14.62727 0.7727,-2.60579 1.9014,-5.55246 4.5451,-6.75688 z"
     id="path26"
     style="stroke-width:0.757497" />
  <path
     fill="#26a56c"
     opacity="1"
     d="m 520.8979,269.95673 c 5.6584,-2.84061 12.5138,-3.88596 18.5662,-1.68922 2.4013,0.84083 4.4693,3.18149 4.0602,5.86303 -0.9468,6.90838 -3.6815,13.80917 -8.696,18.77835 -6.06,5.85546 -16.5893,8.3552 -23.6339,2.84062 4.9161,-3.43146 9.8928,-6.79475 14.6878,-10.39286 1.5302,-0.9393 -0.098,-2.54519 -0.6591,-3.58296 -5.3554,3.41631 -10.4458,7.22652 -15.7634,10.69586 -2.159,-2.96939 -2.8331,-7.02958 -1.2727,-10.41559 2.3256,-5.6282 7.4463,-9.40811 12.7109,-12.09723 z"
     id="path28"
     style="stroke-width:0.757497" />
  <path
     fill="#26a56c"
     opacity="1"
     d="m 114.01917,415.17489 c 3.18148,-0.99989 6.55235,0.52268 8.55971,3.02999 5.70396,6.94625 5.87818,17.13459 2.29522,25.09588 -1.26502,2.70427 -4.18139,4.99191 -7.30227,4.31774 -3.55266,-0.91658 -5.90091,-4.12836 -7.36288,-7.2947 -2.45429,-5.54488 -3.31783,-11.93816 -1.74981,-17.83906 0.86354,-2.96181 2.46944,-6.2039 5.56003,-7.30985 z"
     id="path32"
     style="stroke-width:0.757497" />
  <path
     fill="#26a56c"
     opacity="1"
     d="m 144.6372,427.45392 c 5.45398,-2.18159 11.7109,-2.49974 17.33911,-0.80294 2.68911,0.73477 4.94645,3.40116 4.33288,6.30237 -1.46197,9.81716 -6.24178,20.33122 -15.71807,24.68683 -5.9009,2.46944 -13.77887,3.56781 -18.81622,-1.25744 5.2646,-3.85566 10.76403,-7.40075 15.83169,-11.51396 1.68164,-0.93172 0.1515,-2.57549 -0.3939,-3.70416 -6.43873,3.29511 -11.81696,8.27944 -17.90723,12.1351 -1.67407,-3.42388 -2.46187,-7.45377 -1.0605,-11.11248 2.60579,-7.28712 9.53689,-11.88513 16.39224,-14.73332 z"
     id="path34"
     style="stroke-width:0.757497" />
  <path
     fill="#26a56c"
     opacity="1"
     d="m 268.59613,501.61216 c 3.4694,-1.44682 7.3553,0.3636 9.3778,3.31026 4.8859,6.82505 5.2343,16.44526 1.4241,23.83843 -1.2877,2.66639 -4.4768,4.51469 -7.3856,3.32542 -3.8859,-1.62862 -6.1811,-5.65093 -7.3325,-9.52174 -1.3787,-5.05251 -1.8559,-10.52164 -0.1818,-15.55899 0.6817,-2.18917 1.977,-4.34804 4.098,-5.39338 z"
     id="path36"
     style="stroke-width:0.757497" />
  <path
     fill="#26a56c"
     opacity="1"
     d="m 303.45613,511.39902 c 4.5299,-0.74235 9.4536,-0.74235 13.6956,1.23472 2.1437,0.9393 3.1588,3.43904 2.8255,5.68123 -0.8106,6.28722 -3.2421,12.44568 -7.2266,17.41486 -4.6586,5.72667 -12.2108,9.10511 -19.604,8.35519 -2.6134,-0.23482 -4.9843,-1.49227 -6.9538,-3.15876 5.2646,-3.88596 10.9004,-7.27198 15.9907,-11.38519 1.2651,-0.89384 -0.4772,-2.11341 -0.8105,-3.01483 -6.2569,2.98454 -11.3776,7.84767 -17.3997,11.26398 -1.6892,-3.30269 -2.6058,-7.27955 -1.0302,-10.80949 3.6815,-8.22641 11.9533,-13.55919 20.513,-15.58171 z"
     id="path38"
     style="stroke-width:0.757497" />
  <path
     fill="#1a1c1f"
     opacity="1"
     d="m 379.15199,172.96623 c 5.4464,-3.36328 10.4762,-7.34772 15.8999,-10.75645 0.5681,1.06049 2.0831,2.68154 0.5833,3.63598 -4.742,3.64356 -9.946,6.68113 -14.6803,10.35499 -2.7346,2.05281 -5.6207,3.93141 -8.7567,5.31005 -0.2878,-0.37117 -0.8635,-1.12109 -1.1514,-1.49984 -0.015,-0.32573 -0.038,-0.97717 -0.045,-1.3029 2.7421,-1.87859 5.4539,-3.80263 8.1506,-5.74183 z"
     id="path41"
     style="stroke-width:0.757497" />
  <path
     fill="#1a1c1f"
     opacity="1"
     d="m 509.4597,292.46955 c 5.3176,-3.46934 10.408,-7.27955 15.7634,-10.69586 0.5606,1.03777 2.1893,2.64366 0.6591,3.58296 -4.795,3.59811 -9.7717,6.9614 -14.6878,10.39286 -2.6135,1.96192 -5.4162,3.63598 -8.0371,5.57518 -0.9014,0.91657 -2.1967,0.56812 -3.3103,0.53782 -0.098,-1.05292 -0.6288,-2.44672 0.5681,-3.08301 2.9239,-2.22704 6.0524,-4.17381 9.0446,-6.30995 z"
     id="path49"
     style="stroke-width:0.757497" />
  <path
     fill="#1a1c1f"
     opacity="1"
     d="m 129.30546,453.29972 c 6.09027,-3.85566 11.4685,-8.83999 17.90723,-12.1351 0.5454,1.12867 2.07554,2.77244 0.3939,3.70416 -5.06766,4.11321 -10.56709,7.6583 -15.83169,11.51396 -3.20422,2.20431 -6.43115,4.3859 -9.68082,6.51447 -1.35592,0.50752 -1.93919,-1.12867 -2.69669,-1.84072 2.38612,-3.50721 6.61295,-5.204 9.90807,-7.75677 z"
     id="path53"
     style="stroke-width:0.757497" />
  <path
     fill="#1a1c1f"
     opacity="1"
     d="m 283.97333,537.79022 c 6.0221,-3.41631 11.1428,-8.27944 17.3997,-11.26398 0.3333,0.90142 2.0756,2.12099 0.8105,3.01483 -5.0903,4.11321 -10.7261,7.49923 -15.9907,11.38519 -2.4998,1.81799 -5.0298,3.59053 -7.5523,5.37823 -0.8256,0.77264 -1.977,0.65144 -3.0148,0.63629 -0.2727,-0.53782 -0.8181,-1.60589 -1.0908,-2.14371 2.6891,-2.87849 6.31,-4.65104 9.4384,-7.00685 z"
     id="path55"
     style="stroke-width:0.757497" />
</svg>
