<?xml version="1.0" encoding="UTF-8" standalone="no"?>
<svg
   width="664.24414pt"
   height="651.84241pt"
   viewBox="0 0 664.24414 651.84241"
   version="1.1"
   id="svg64"
   sodipodi:docname="icon_not_found.svg"
   inkscape:version="1.1.2 (0a00cf5339, 2022-02-04)"
   inkscape:export-filename="/home/mguillon/dev/nativescript/conty/icon_not_found.png"
   inkscape:export-xdpi="48"
   inkscape:export-ydpi="48"
   xmlns:inkscape="http://www.inkscape.org/namespaces/inkscape"
   xmlns:sodipodi="http://sodipodi.sourceforge.net/DTD/sodipodi-0.dtd"
   xmlns="http://www.w3.org/2000/svg"
   xmlns:svg="http://www.w3.org/2000/svg">
  <defs
     id="defs68" />
  <sodipodi:namedview
     id="namedview66"
     pagecolor="#ffffff"
     bordercolor="#666666"
     borderopacity="1.0"
     inkscape:pageshadow="2"
     inkscape:pageopacity="0.0"
     inkscape:pagecheckerboard="0"
     inkscape:document-units="pt"
     showgrid="false"
     fit-margin-top="0"
     fit-margin-left="0"
     fit-margin-right="0"
     fit-margin-bottom="0"
     inkscape:zoom="0.44729715"
     inkscape:cx="998.21785"
     inkscape:cy="481.78264"
     inkscape:window-width="1920"
     inkscape:window-height="999"
     inkscape:window-x="0"
     inkscape:window-y="0"
     inkscape:window-maximized="1"
     inkscape:current-layer="svg64" />
  <g
     id="#57a0f7ff"
     transform="translate(-176.09441,-187.84845)" />
  <g
     style="fill:none;stroke:none;stroke-width:0.22329908;stroke-linecap:round;stroke-linejoin:round;stroke-opacity:1;stroke-miterlimit:4;stroke-dasharray:none"
     id="g5729"
     transform="matrix(16.121876,0,0,16.121876,140.96302,134.10163)">
    <path
       style="color:#000000;fill:#f9ad0c;stroke:none;stroke-linecap:butt;stroke-linejoin:miter;stroke-opacity:1;stroke-width:0.22329908;stroke-miterlimit:4;stroke-dasharray:none"
       d="m 12,1.9257812 c -0.996146,0 -1.991747,0.4718631 -2.5644531,1.4160157 a 1.0001,1.0001 0 0 0 -0.00391,0.00391 L 0.96289063,17.486328 A 1.0001,1.0001 0 0 0 0.953125,17.5 c -1.12411046,1.946703 0.3185926,4.475294 2.5664063,4.5 a 1.0001,1.0001 0 0 0 0.00977,0 H 20.470703 a 1.0001,1.0001 0 0 0 0.0098,0 c 2.247813,-0.02471 3.690516,-2.553297 2.566406,-4.5 a 1.0001,1.0001 0 0 0 -0.0098,-0.01367 L 14.568359,3.3457031 a 1.0001,1.0001 0 0 0 -0.0039,-0.00391 C 13.991747,2.3976443 12.996146,1.9257813 12,1.9257812 Z m 0,1.9433594 c 0.324531,0 0.649531,0.1702608 0.855469,0.5097656 L 21.314453,18.5 c 0.405981,0.703067 -0.04365,1.491077 -0.855469,1.5 H 3.5410156 C 2.7292003,19.991077 2.2795657,19.203067 2.6855469,18.5 L 11.144531,4.3789062 C 11.350469,4.0394014 11.675469,3.8691406 12,3.8691406 Z"
       id="path5714" />
    <path
       style="color:#000000;fill:#f9ad0c;stroke:none;stroke-linecap:butt;stroke-linejoin:miter;stroke-opacity:1;stroke-width:0.22329908;stroke-miterlimit:4;stroke-dasharray:none"
       d="m 12,8 a 1,1 0 0 0 -1,1 v 4 a 1,1 0 0 0 1,1 1,1 0 0 0 1,-1 V 9 A 1,1 0 0 0 12,8 Z"
       id="line5716" />
    <path
       style="color:#000000;fill:#f9ad0c;stroke:none;stroke-linecap:butt;stroke-linejoin:miter;stroke-opacity:1;stroke-width:0.22329908;stroke-miterlimit:4;stroke-dasharray:none"
       d="m 12,16 a 1,1 0 0 0 -1,1 1,1 0 0 0 1,1 h 0.0098 a 1,1 0 0 0 1,-1 1,1 0 0 0 -1,-1 z"
       id="line5718" />
  </g>
  <path
     fill="#f9ad0c"
     opacity="1"
     d="m 152.28898,137.24881 c 2.93,-1.65 6.6,-0.58 9.09,1.42 4.87,3.86 9.67,8.16 15.6,10.31 6.02,1.12 12.05,-1.62 18.1,-0.91 3.69,0.5 6.9,4.1 6.31,7.91 -0.94,6.17 -4.12,11.8 -4.78,18.03 0.51,6.55 4.84,11.92 6.79,18.05 0.85,3.02 -0.28,6.58 -2.97,8.3 -2.41,1.81 -5.58,1.47 -8.41,1.47 -4.67,-0.21 -9.35,0.32 -13.95,1.08 -5.93,2.83 -9.58,8.56 -14.51,12.65 -3.24,2.79 -9.08,1.64 -10.47,-2.58 -2.27,-6.12 -3.22,-12.78 -6.44,-18.52 -4.41,-5.29 -11.69,-6.36 -17.35,-9.77 -3.94,-2.26 -4.34,-8.46 -0.97,-11.39 5.07,-4.59 11.61,-7.54 15.99,-12.89 2.24,-5.45 2.73,-11.41 3.9,-17.15 0.45,-2.45 1.7,-4.92 4.07,-6.01 z"
     id="path15-0" />
  <path
     fill="#26a56c"
     opacity="1"
     d="m 502.46572,303.89493 c 4.16,-2.11001 8.99,0.47 11.56,3.88999 6.28,8.38 6.76,20.07 2.7,29.51 -1.62,3.57 -5.45,6.71 -9.58,5.65 -4.79,-1.62 -7.75,-6.31 -9.44,-10.82 -2.08,-6.16 -2.83,-12.96 -1.24,-19.31 1.02,-3.44 2.51,-7.33 6,-8.91999 z"
     id="path26-3" />
  <path
     fill="#26a56c"
     opacity="1"
     d="m 537.62572,319.18493 c 7.47,-3.75 16.52,-5.13 24.51,-2.23 3.17,1.11 5.9,4.19999 5.36,7.74 -1.25,9.12 -4.86,18.23 -11.48,24.79 -8,7.73 -21.9,11.03 -31.2,3.75 6.49,-4.53 13.06,-8.97 19.39,-13.72 2.02,-1.24 -0.13,-3.36001 -0.87,-4.73001 -7.07,4.51 -13.79,9.54001 -20.81,14.12 -2.85,-3.92 -3.74,-9.27999 -1.68,-13.75 3.07,-7.43 9.83,-12.42 16.78,-15.96999 z"
     id="path28-0" />
  <path
     fill="#1a1c1f"
     opacity="1"
     d="m 522.52572,348.90492 c 7.02,-4.57999 13.74,-9.61 20.81,-14.12 0.74,1.37 2.89,3.49001 0.87,4.73001 -6.33,4.75 -12.9,9.19 -19.39,13.72 -3.45,2.59 -7.15,4.8 -10.61,7.36 -1.19,1.21 -2.9,0.75 -4.37,0.71 -0.13,-1.39 -0.83,-3.23 0.75,-4.07 3.86,-2.94 7.99,-5.51 11.94,-8.33001 z"
     id="path49-4" />
  <path
     fill="#f9ad0c"
     opacity="1"
     d="m 542.57531,496.00061 c 3.93,-2.17 6.9,2.28 7.7,5.61 0.98,4.82 6.53,5.21 10.17,7.04 2,0.73 3.39,2.9 2.62,5.02 -1.63,3.45 -5.18,5.46 -7.03,8.74 -0.98,3.58 1.32,8.24 -2.12,10.92 -2.96,2.7 -6.6,-0.79 -9.61,-1.68 -3.58,-1.94 -7.31,0.47 -10.88,1.12 -2.16,0.67 -4.69,-0.78 -5.02,-3.06 -0.53,-3.62 1.08,-7.3 0.24,-10.91 -1.33,-2.65 -3.48,-4.79 -4.7,-7.49 -0.69,-1.63 -0.2,-3.78 1.35,-4.73 2.92,-1.72 6.64,-0.7 9.57,-2.37 3.25,-2.05 4.69,-5.92 7.71,-8.21 z"
     id="path17-4" />
  <path
     fill="#f9ad0c"
     opacity="1"
     d="m 157.4819,314.22858 c 4.14,-2.32 6.58,2.82 9.16,5.12 3.31,4.09 9.25,1.44 13.41,3.55 3.92,3.48 -0.93,8.03 -2.28,11.61 -2.99,4.27 2.92,8.96 0.36,13.22 -2.64,3.64 -7.33,0.86 -10.86,0.64 -5.26,-1.67 -8.57,5.72 -13.7,3.84 -4.49,-3.04 -1.04,-10.12 -5.3,-13.42 -2.07,-2.06 -6.07,-3.34 -5.58,-6.89 0.26,-3.81 4.73,-4.63 7.44,-6.25 4.86,-1.9 3.58,-8.5 7.35,-11.42 z"
     id="path19-4" />
  <path
     fill="#f9ad0c"
     opacity="1"
     d="m 453.85014,189.09071 c 3.1,-2.86 3.86,-7.4 6.86,-10.33 1.91,-1.04 4.6,-0.65 6.07,1.02 2.63,2.46 3.3,6.66 6.64,8.39 2.78,0.81 5.75,0.65 8.55,1.45 2.13,0.55 3.58,3.04 2.77,5.15 -1.32,3.37 -4.18,5.82 -5.6,9.13 -0.67,3.34 1.04,6.63 0.68,9.97 -0.45,1.94 -2.27,2.89 -4.05,3.32 -4.22,-0.07 -7.92,-2.93 -12.16,-2.68 -2.76,0.93 -5.18,2.61 -7.93,3.57 -2.64,0.99 -5.84,-1.33 -5.52,-4.17 -0.3,-3.28 0.86,-7.18 -1.6,-9.86 -2.39,-2.56 -5.26,-4.8 -6.44,-8.23 1.64,-5.14 7.78,-4.6 11.73,-6.73 z"
     id="path11-4" />
  <path
     fill="#26a56c"
     opacity="1"
     d="m 222.22146,533.48064 c 4.58,-1.91 9.71,0.48 12.38,4.37 6.45,9.01 6.91,21.71 1.88,31.47 -1.7,3.52 -5.91,5.96 -9.75,4.39 -5.13,-2.15 -8.16,-7.46 -9.68,-12.57 -1.82,-6.67 -2.45,-13.89 -0.24,-20.54 0.9,-2.89 2.61,-5.74 5.41,-7.12 z"
     id="path36-7" />
  <path
     fill="#26a56c"
     opacity="1"
     d="m 268.24146,546.40064 c 5.98,-0.98 12.48,-0.98 18.08,1.63 2.83,1.24 4.17,4.54 3.73,7.5 -1.07,8.3 -4.28,16.43 -9.54,22.99 -6.15,7.56 -16.12,12.02 -25.88,11.03 -3.45,-0.31 -6.58,-1.97 -9.18,-4.17 6.95,-5.13 14.39,-9.6 21.11,-15.03 1.67,-1.18 -0.63,-2.79 -1.07,-3.98 -8.26,3.94 -15.02,10.36 -22.97,14.87 -2.23,-4.36 -3.44,-9.61 -1.36,-14.27 4.86,-10.86 15.78,-17.9 27.08,-20.57 z"
     id="path38-6" />
  <path
     fill="#1a1c1f"
     opacity="1"
     d="m 242.52146,581.24064 c 7.95,-4.51 14.71,-10.93 22.97,-14.87 0.44,1.19 2.74,2.8 1.07,3.98 -6.72,5.43 -14.16,9.9 -21.11,15.03 -3.3,2.4 -6.64,4.74 -9.97,7.1 -1.09,1.02 -2.61,0.86 -3.98,0.84 -0.36,-0.71 -1.08,-2.12 -1.44,-2.83 3.55,-3.8 8.33,-6.14 12.46,-9.25 z"
     id="path55-3" />
</svg>
