<?xml version="1.0" encoding="UTF-8" standalone="no"?>
<svg
   width="740pt"
   height="740pt"
   viewBox="0 0 740 740"
   version="1.1"
   id="svg64"
   sodipodi:docname="icon.svg"
   inkscape:version="1.1.2 (0a00cf5339, 2022-02-04)"
   xmlns:inkscape="http://www.inkscape.org/namespaces/inkscape"
   xmlns:sodipodi="http://sodipodi.sourceforge.net/DTD/sodipodi-0.dtd"
   xmlns="http://www.w3.org/2000/svg"
   xmlns:svg="http://www.w3.org/2000/svg">
  <defs
     id="defs68" />
  <sodipodi:namedview
     id="namedview66"
     pagecolor="#ffffff"
     bordercolor="#666666"
     borderopacity="1.0"
     inkscape:pageshadow="2"
     inkscape:pageopacity="0.0"
     inkscape:pagecheckerboard="0"
     inkscape:document-units="pt"
     showgrid="false"
     fit-margin-top="0"
     fit-margin-left="0"
     fit-margin-right="0"
     fit-margin-bottom="0"
     inkscape:zoom="0.32533787"
     inkscape:cx="902.13906"
     inkscape:cy="542.51293"
     inkscape:window-width="1920"
     inkscape:window-height="999"
     inkscape:window-x="0"
     inkscape:window-y="0"
     inkscape:window-maximized="1"
     inkscape:current-layer="svg64" />
  <g
     id="#f9ad0cff"
     transform="translate(-158.6521,-164.35672)">
    <path
       fill="#f9ad0c"
       opacity="1"
       d="m 329.61,196.58 c 3.55,-6.34 11.33,-9.48 18.37,-8.58 7.5,0.87 14.18,4.69 20.67,8.29 12.3,7.01 24.1,14.91 36.71,21.36 5.01,2.5 10.53,-0.09 15.2,-2.13 14.07,-6.32 27.8,-13.56 42.55,-18.21 7.07,-2.29 15.34,-2.37 21.69,1.93 5.43,3.4 8.49,9.57 9.32,15.78 1.18,7.33 -0.59,14.68 -2.33,21.77 -2.62,9.92 -5.67,19.72 -8.13,29.68 -0.44,2.74 -1.53,5.73 -0.26,8.4 2.24,4.13 5.51,7.55 8.67,10.98 9.02,9.66 18.67,18.74 27.16,28.88 3.62,4.35 7.1,9.31 7.52,15.14 0.47,4.15 -1.07,8.16 -3.09,11.69 -5.04,6.81 -13.5,9.71 -21.64,10.48 -16.32,1.79 -32.79,1.15 -49.16,2.04 -5.2,0.23 -8.59,4.88 -10.6,9.18 -7.26,15.57 -13.64,31.64 -22.73,46.28 -3.74,6.05 -9.13,11.94 -16.48,13.14 -7.19,1.38 -14.61,-2.17 -18.8,-8 -4.82,-6.6 -8.19,-14.13 -11.33,-21.63 -3.94,-10.45 -7.85,-20.92 -11.49,-31.48 -1.43,-4.02 -3.51,-8.45 -7.85,-9.94 -4.41,-1.23 -9.06,-1.11 -13.56,-1.76 -12.42,-1.1 -24.9,-2.05 -37.09,-4.79 -6.53,-1.52 -13.29,-3.96 -17.76,-9.21 -4.3,-5.02 -5.04,-12.42 -2.74,-18.5 1.84,-4.75 4.87,-8.96 8.42,-12.57 11.87,-11.82 24.65,-22.68 37.71,-33.14 3.69,-2.62 4.59,-7.36 3.9,-11.59 -1.87,-13.09 -5.38,-25.93 -6.76,-39.1 -0.68,-8.25 -0.27,-17.04 3.91,-24.39 m 86.75,51.9 c -4.61,1.82 -7.76,6.26 -8.73,11.02 -1.7,7.69 1.33,15.77 6.43,21.54 3.92,4.42 10.13,7.08 16.03,5.77 4.85,-0.95 8.68,-5.05 9.9,-9.75 2.49,-9.19 -0.68,-19.86 -8.39,-25.64 -4.18,-3.34 -10.13,-5.24 -15.24,-2.94 m -49.95,32.09 c -5.15,1.47 -9.22,6.03 -10.23,11.27 -1.99,10.21 3.35,21.62 12.84,26.14 4.94,2.29 11.4,2.51 15.7,-1.26 5.97,-4.69 7.02,-13.44 4.72,-20.29 -2.95,-9.46 -12.52,-18.45 -23.03,-15.86 m 38.72,37.63 c -0.99,0.68 -1.8,1.58 -2.63,2.44 4.54,5.39 11.51,8.9 18.65,8.05 7.61,-0.72 14.09,-7.13 15.55,-14.55 0.97,-4.71 1.17,-10.26 -2.25,-14.09 -9.8,6.01 -19.75,11.78 -29.32,18.15 z"
       id="path9" />
    <path
       fill="#f9ad0c"
       opacity="1"
       d="m 697.18,239.2 c 3.1,-2.86 3.86,-7.4 6.86,-10.33 1.91,-1.04 4.6,-0.65 6.07,1.02 2.63,2.46 3.3,6.66 6.64,8.39 2.78,0.81 5.75,0.65 8.55,1.45 2.13,0.55 3.58,3.04 2.77,5.15 -1.32,3.37 -4.18,5.82 -5.6,9.13 -0.67,3.34 1.04,6.63 0.68,9.97 -0.45,1.94 -2.27,2.89 -4.05,3.32 -4.22,-0.07 -7.92,-2.93 -12.16,-2.68 -2.76,0.93 -5.18,2.61 -7.93,3.57 -2.64,0.99 -5.84,-1.33 -5.52,-4.17 -0.3,-3.28 0.86,-7.18 -1.6,-9.86 -2.39,-2.56 -5.26,-4.8 -6.44,-8.23 1.64,-5.14 7.78,-4.6 11.73,-6.73 z"
       id="path11" />
    <path
       fill="#f9ad0c"
       opacity="1"
       d="m 197.22,353.29 c 2.94,-1.47 6.38,-0.21 8.68,1.85 3.66,2.88 7.12,6.94 12.11,7.17 4.4,0.02 8.7,-1.13 13.09,-1.39 2.78,0.03 5.94,2 5.77,5.1 0,5.52 -3.6,10.37 -3.52,15.91 0.41,5.5 4.83,9.65 5.54,15.03 0.63,3.14 -1.81,6.28 -4.96,6.59 -5.51,0.64 -11.4,-0.75 -16.59,1.75 -4.12,2.46 -6.77,6.62 -10.34,9.72 -2.71,2.37 -7.43,1.18 -8.89,-2.05 -1.92,-4.85 -2.1,-10.5 -5.29,-14.79 -4.2,-3.7 -10.21,-4.12 -14.76,-7.24 -2.55,-1.83 -2.6,-6.03 -0.26,-8.05 4.15,-3.92 9.69,-6.24 13.29,-10.79 1.83,-4.78 1.87,-10.04 2.99,-15 0.27,-1.73 1.52,-3.2 3.14,-3.81 z"
       id="path13" />
    <path
       fill="#f9ad0c"
       opacity="1"
       d="m 731.27,524.23 c 2.93,-1.65 6.6,-0.58 9.09,1.42 4.87,3.86 9.67,8.16 15.6,10.31 6.02,1.12 12.05,-1.62 18.1,-0.91 3.69,0.5 6.9,4.1 6.31,7.91 -0.94,6.17 -4.12,11.8 -4.78,18.03 0.51,6.55 4.84,11.92 6.79,18.05 0.85,3.02 -0.28,6.58 -2.97,8.3 -2.41,1.81 -5.58,1.47 -8.41,1.47 -4.67,-0.21 -9.35,0.32 -13.95,1.08 -5.93,2.83 -9.58,8.56 -14.51,12.65 -3.24,2.79 -9.08,1.64 -10.47,-2.58 -2.27,-6.12 -3.22,-12.78 -6.44,-18.52 -4.41,-5.29 -11.69,-6.36 -17.35,-9.77 -3.94,-2.26 -4.34,-8.46 -0.97,-11.39 5.07,-4.59 11.61,-7.54 15.99,-12.89 2.24,-5.45 2.73,-11.41 3.9,-17.15 0.45,-2.45 1.7,-4.92 4.07,-6.01 z"
       id="path15" />
    <path
       fill="#f9ad0c"
       opacity="1"
       d="m 209.18,535.28 c 3.93,-2.17 6.9,2.28 7.7,5.61 0.98,4.82 6.53,5.21 10.17,7.04 2,0.73 3.39,2.9 2.62,5.02 -1.63,3.45 -5.18,5.46 -7.03,8.74 -0.98,3.58 1.32,8.24 -2.12,10.92 -2.96,2.7 -6.6,-0.79 -9.61,-1.68 -3.58,-1.94 -7.31,0.47 -10.88,1.12 -2.16,0.67 -4.69,-0.78 -5.02,-3.06 -0.53,-3.62 1.08,-7.3 0.24,-10.91 -1.33,-2.65 -3.48,-4.79 -4.7,-7.49 -0.69,-1.63 -0.2,-3.78 1.35,-4.73 2.92,-1.72 6.64,-0.7 9.57,-2.37 3.25,-2.05 4.69,-5.92 7.71,-8.21 z"
       id="path17" />
    <path
       fill="#f9ad0c"
       opacity="1"
       d="m 729.33,790.35 c 4.14,-2.32 6.58,2.82 9.16,5.12 3.31,4.09 9.25,1.44 13.41,3.55 3.92,3.48 -0.93,8.03 -2.28,11.61 -2.99,4.27 2.92,8.96 0.36,13.22 -2.64,3.64 -7.33,0.86 -10.86,0.64 -5.26,-1.67 -8.57,5.72 -13.7,3.84 -4.49,-3.04 -1.04,-10.12 -5.3,-13.42 -2.07,-2.06 -6.07,-3.34 -5.58,-6.89 0.26,-3.81 4.73,-4.63 7.44,-6.25 4.86,-1.9 3.58,-8.5 7.35,-11.42 z"
       id="path19" />
  </g>
  <g
     id="#26a56cff"
     transform="translate(-158.6521,-164.35672)">
    <path
       fill="#26a56c"
       opacity="1"
       d="m 541.33,492.42 c 18.15,-8 37.66,-13.74 57.62,-14.04 11.25,-0.25 23.24,0.49 33.08,6.53 7.62,4.6 11.74,13.43 12.16,22.13 0.82,15.44 -3.54,30.64 -9.54,44.72 -13.89,31.55 -40.01,57.27 -71.27,71.61 -15.68,7.29 -33,11.61 -50.35,10.89 -14.34,-1.01 -29.17,-6.03 -38.97,-17 16.33,-11.79 33.08,-22.98 49.5,-34.65 10.73,-7.65 21.53,-15.19 32.43,-22.59 3.07,-2.19 6.77,-3.87 8.87,-7.14 1.41,-3.3 1.08,-7.63 -1.54,-10.27 -2.9,-3.12 -8.15,-3.27 -11.45,-0.69 -16.14,11.19 -32.39,22.23 -48.37,33.64 -12.58,9.23 -25.73,17.65 -38.31,26.89 -4.08,-9.18 -3.7,-19.75 -2.05,-29.47 3.23,-16.91 13.21,-31.66 25.05,-43.82 15.05,-15.61 33.52,-27.65 53.14,-36.74 z"
       id="path30" />
    <path
       fill="#26a56c"
       opacity="1"
       d="m 560.29,205.27 c 4.43,-2.24 9.69,0.35 12.25,4.21 6.12,8.81 6.13,20.94 1.29,30.32 -1.42,2.87 -4.54,5.14 -7.85,4.45 -4.33,-0.74 -7.24,-4.52 -9.03,-8.25 -3.1,-6.78 -4.2,-14.56 -2.58,-21.87 0.9,-3.45 2.5,-7.23 5.92,-8.86 z"
       id="path22" />
    <path
       fill="#26a56c"
       opacity="1"
       d="m 595.95,219.91 c 7.35,-3.65 16.27,-5.01 24.07,-2 3.28,1.15 5.76,4.48 5.22,8.04 -0.96,7.01 -3.5,13.88 -7.41,19.78 -5.76,8.66 -16.42,13.75 -26.77,12.76 -3.23,-0.24 -5.92,-2.14 -8.47,-3.95 6.25,-4.85 13.12,-8.86 19.38,-13.67 1.98,-1.26 -0.02,-3.4 -0.77,-4.8 -7.16,4.5 -13.8,9.76 -20.99,14.2 -1.63,-3.81 -3.27,-8.08 -1.82,-12.22 2.89,-8.22 9.82,-14.48 17.56,-18.14 z"
       id="path24" />
    <path
       fill="#26a56c"
       opacity="1"
       d="m 775.24,437.19 c 4.16,-2.11 8.99,0.47 11.56,3.89 6.28,8.38 6.76,20.07 2.7,29.51 -1.62,3.57 -5.45,6.71 -9.58,5.65 -4.79,-1.62 -7.75,-6.31 -9.44,-10.82 -2.08,-6.16 -2.83,-12.96 -1.24,-19.31 1.02,-3.44 2.51,-7.33 6,-8.92 z"
       id="path26" />
    <path
       fill="#26a56c"
       opacity="1"
       d="m 810.4,452.48 c 7.47,-3.75 16.52,-5.13 24.51,-2.23 3.17,1.11 5.9,4.2 5.36,7.74 -1.25,9.12 -4.86,18.23 -11.48,24.79 -8,7.73 -21.9,11.03 -31.2,3.75 6.49,-4.53 13.06,-8.97 19.39,-13.72 2.02,-1.24 -0.13,-3.36 -0.87,-4.73 -7.07,4.51 -13.79,9.54 -20.81,14.12 -2.85,-3.92 -3.74,-9.28 -1.68,-13.75 3.07,-7.43 9.83,-12.42 16.78,-15.97 z"
       id="path28" />
    <path
       fill="#26a56c"
       opacity="1"
       d="m 194.31,627.44 c 4.2,-1.32 8.65,0.69 11.3,4 7.53,9.17 7.76,22.62 3.03,33.13 -1.67,3.57 -5.52,6.59 -9.64,5.7 -4.69,-1.21 -7.79,-5.45 -9.72,-9.63 -3.24,-7.32 -4.38,-15.76 -2.31,-23.55 1.14,-3.91 3.26,-8.19 7.34,-9.65 z"
       id="path32" />
    <path
       fill="#26a56c"
       opacity="1"
       d="m 234.73,643.65 c 7.2,-2.88 15.46,-3.3 22.89,-1.06 3.55,0.97 6.53,4.49 5.72,8.32 -1.93,12.96 -8.24,26.84 -20.75,32.59 -7.79,3.26 -18.19,4.71 -24.84,-1.66 6.95,-5.09 14.21,-9.77 20.9,-15.2 2.22,-1.23 0.2,-3.4 -0.52,-4.89 -8.5,4.35 -15.6,10.93 -23.64,16.02 -2.21,-4.52 -3.25,-9.84 -1.4,-14.67 3.44,-9.62 12.59,-15.69 21.64,-19.45 z"
       id="path34" />
    <path
       fill="#26a56c"
       opacity="1"
       d="m 283.53,779.83 c 4.58,-1.91 9.71,0.48 12.38,4.37 6.45,9.01 6.91,21.71 1.88,31.47 -1.7,3.52 -5.91,5.96 -9.75,4.39 -5.13,-2.15 -8.16,-7.46 -9.68,-12.57 -1.82,-6.67 -2.45,-13.89 -0.24,-20.54 0.9,-2.89 2.61,-5.74 5.41,-7.12 z"
       id="path36" />
    <path
       fill="#26a56c"
       opacity="1"
       d="m 329.55,792.75 c 5.98,-0.98 12.48,-0.98 18.08,1.63 2.83,1.24 4.17,4.54 3.73,7.5 -1.07,8.3 -4.28,16.43 -9.54,22.99 -6.15,7.56 -16.12,12.02 -25.88,11.03 -3.45,-0.31 -6.58,-1.97 -9.18,-4.17 6.95,-5.13 14.39,-9.6 21.11,-15.03 1.67,-1.18 -0.63,-2.79 -1.07,-3.98 -8.26,3.94 -15.02,10.36 -22.97,14.87 -2.23,-4.36 -3.44,-9.61 -1.36,-14.27 4.86,-10.86 15.78,-17.9 27.08,-20.57 z"
       id="path38" />
  </g>
  <g
     id="#1a1c1fff"
     transform="translate(-158.6521,-164.35672)">
    <path
       fill="#1a1c1f"
       opacity="1"
       d="m 580.21,250.27 c 7.19,-4.44 13.83,-9.7 20.99,-14.2 0.75,1.4 2.75,3.54 0.77,4.8 -6.26,4.81 -13.13,8.82 -19.38,13.67 -3.61,2.71 -7.42,5.19 -11.56,7.01 -0.38,-0.49 -1.14,-1.48 -1.52,-1.98 -0.02,-0.43 -0.05,-1.29 -0.06,-1.72 3.62,-2.48 7.2,-5.02 10.76,-7.58 z"
       id="path41" />
    <path
       fill="#1a1c1f"
       opacity="1"
       d="m 416.36,248.48 c 5.11,-2.3 11.06,-0.4 15.24,2.94 7.71,5.78 10.88,16.45 8.39,25.64 -1.22,4.7 -5.05,8.8 -9.9,9.75 -5.9,1.31 -12.11,-1.35 -16.03,-5.77 -5.1,-5.77 -8.13,-13.85 -6.43,-21.54 0.97,-4.76 4.12,-9.2 8.73,-11.02 m 0.15,15.13 c -3.34,1.49 -2.53,6.67 0.52,8 2.41,1.38 5.72,-0.89 5.28,-3.64 0.11,-2.92 -2.96,-5.6 -5.8,-4.36 z"
       id="path43" />
    <path
       fill="#1a1c1f"
       opacity="1"
       d="m 366.41,280.57 c 10.51,-2.59 20.08,6.4 23.03,15.86 2.3,6.85 1.25,15.6 -4.72,20.29 -4.3,3.77 -10.76,3.55 -15.7,1.26 -9.49,-4.52 -14.83,-15.93 -12.84,-26.14 1.01,-5.24 5.08,-9.8 10.23,-11.27 m -1.16,15.58 c -4.28,2.85 0.02,10.53 4.69,7.84 4.31,-2.72 -0.14,-10.36 -4.69,-7.84 z"
       id="path45" />
    <path
       fill="#1a1c1f"
       opacity="1"
       d="m 405.13,318.2 c 9.57,-6.37 19.52,-12.14 29.32,-18.15 3.42,3.83 3.22,9.38 2.25,14.09 -1.46,7.42 -7.94,13.83 -15.55,14.55 -7.14,0.85 -14.11,-2.66 -18.65,-8.05 0.83,-0.86 1.64,-1.76 2.63,-2.44 z"
       id="path47" />
    <path
       fill="#1a1c1f"
       opacity="1"
       d="m 795.3,482.2 c 7.02,-4.58 13.74,-9.61 20.81,-14.12 0.74,1.37 2.89,3.49 0.87,4.73 -6.33,4.75 -12.9,9.19 -19.39,13.72 -3.45,2.59 -7.15,4.8 -10.61,7.36 -1.19,1.21 -2.9,0.75 -4.37,0.71 -0.13,-1.39 -0.83,-3.23 0.75,-4.07 3.86,-2.94 7.99,-5.51 11.94,-8.33 z"
       id="path49" />
    <path
       fill="#1a1c1f"
       opacity="1"
       d="m 551.87,541.92 c 3.3,-2.58 8.55,-2.43 11.45,0.69 2.62,2.64 2.95,6.97 1.54,10.27 -2.1,3.27 -5.8,4.95 -8.87,7.14 -10.9,7.4 -21.7,14.94 -32.43,22.59 -16.42,11.67 -33.17,22.86 -49.5,34.65 -9.65,6.97 -19.54,13.61 -29.24,20.52 -4.96,2.69 -9.12,8.83 -15.39,7.57 -6.36,-1.13 -9.05,-9.91 -4.62,-14.51 3.2,-2.92 7.21,-4.77 10.62,-7.43 9.77,-7.21 19.93,-13.85 29.76,-20.96 12.58,-9.24 25.73,-17.66 38.31,-26.89 15.98,-11.41 32.23,-22.45 48.37,-33.64 z"
       id="path51" />
    <path
       fill="#1a1c1f"
       opacity="1"
       d="m 214.49,677.77 c 8.04,-5.09 15.14,-11.67 23.64,-16.02 0.72,1.49 2.74,3.66 0.52,4.89 -6.69,5.43 -13.95,10.11 -20.9,15.2 -4.23,2.91 -8.49,5.79 -12.78,8.6 -1.79,0.67 -2.56,-1.49 -3.56,-2.43 3.15,-4.63 8.73,-6.87 13.08,-10.24 z"
       id="path53" />
    <path
       fill="#1a1c1f"
       opacity="1"
       d="m 303.83,827.59 c 7.95,-4.51 14.71,-10.93 22.97,-14.87 0.44,1.19 2.74,2.8 1.07,3.98 -6.72,5.43 -14.16,9.9 -21.11,15.03 -3.3,2.4 -6.64,4.74 -9.97,7.1 -1.09,1.02 -2.61,0.86 -3.98,0.84 -0.36,-0.71 -1.08,-2.12 -1.44,-2.83 3.55,-3.8 8.33,-6.14 12.46,-9.25 z"
       id="path55" />
  </g>
  <g
     id="#57a0f7ff"
     transform="translate(-158.6521,-164.35672)">
    <path
       fill="#57a0f7"
       opacity="1"
       d="m 498.92,272.33 c 43.19,-6.42 87.44,-0.96 129.1,11.41 33.47,10.25 66.07,25.44 92.44,48.83 10.81,9.96 19.99,22.26 24.22,36.48 5.33,19.73 1.91,41.87 -9.92,58.65 -16.41,24.41 -49.18,36.25 -77.39,27.85 -13.27,-3.51 -24.67,-11.4 -36.03,-18.78 -17.02,-10.96 -36.22,-18.65 -56.29,-21.6 -24.45,-3.49 -49.75,-1.29 -73.09,6.86 -13.8,5 -26.98,12.18 -37.81,22.19 -13.68,12.24 -23.13,28.6 -29.13,45.82 -8.65,25.62 -11.13,53.26 -7.64,80.05 1.25,11.48 4.09,22.75 8.14,33.55 2.64,6.89 5.62,13.72 9.91,19.77 -3.41,2.66 -7.42,4.51 -10.62,7.43 -4.43,4.6 -1.74,13.38 4.62,14.51 6.27,1.26 10.43,-4.88 15.39,-7.57 7.05,9.44 16.41,16.94 26.61,22.75 18.38,10.45 39.6,15.09 60.59,15.89 28.5,0.92 57.27,-5.52 82.43,-19.03 12.82,-6.57 24.15,-15.76 37.34,-21.64 12.8,-5.76 27.32,-7.94 41.16,-5.21 15.85,2.82 30.53,11.3 41.29,23.22 9.8,10.74 15.71,24.78 17.26,39.19 1.61,17.18 -3.37,34.94 -14.2,48.45 -9.97,13.08 -23.41,22.95 -37.32,31.48 -26.74,16.68 -56.36,28.29 -86.76,36.31 -38.52,9.7 -78.88,12.15 -118.26,6.89 -38,-5.23 -75.15,-17.9 -107.7,-38.33 -31.01,-19.07 -56.83,-45.89 -76.71,-76.25 -18.2,-28.47 -30.54,-60.5 -37.57,-93.5 -17.42,-85.21 2.43,-177.71 54.69,-247.41 6.22,2.65 13.58,2.5 19.15,6.57 5.84,5.57 7.9,13.73 11.18,20.86 5.66,13.15 10.94,26.45 16.52,39.63 3.2,7.93 8.58,16.25 17.58,18.04 9.37,2.66 19.39,-2.42 24.06,-10.66 9.13,-15.49 16.73,-31.83 25.15,-47.7 2.27,-4.06 3.95,-8.49 6.85,-12.16 1.82,-2.38 5.03,-2.62 7.79,-2.73 14.02,-0.25 28.07,0.34 42.08,-0.54 7.7,-0.67 15.75,-2.12 22.12,-6.79 4.68,-3.4 8.05,-9.17 7.2,-15.09 -0.32,-3.15 -2.12,-5.82 -3.69,-8.46 2.02,-3.53 3.56,-7.54 3.09,-11.69 -0.42,-5.83 -3.9,-10.79 -7.52,-15.14 -8.49,-10.14 -18.14,-19.22 -27.16,-28.88 -3.16,-3.43 -6.43,-6.85 -8.67,-10.98 5.23,-0.46 10.32,-1.81 15.52,-2.54 z"
       id="path58" />
  </g>
  <g
     id="#437ec3ff"
     transform="translate(-158.6521,-164.35672)">
    <path
       fill="#437ec3"
       opacity="1"
       d="m 502.02,352.04 c 8.14,-0.77 16.6,-3.67 21.64,-10.48 1.57,2.64 3.37,5.31 3.69,8.46 0.85,5.92 -2.52,11.69 -7.2,15.09 -6.37,4.67 -14.42,6.12 -22.12,6.79 -14.01,0.88 -28.06,0.29 -42.08,0.54 -2.76,0.11 -5.97,0.35 -7.79,2.73 -2.9,3.67 -4.58,8.1 -6.85,12.16 -8.42,15.87 -16.02,32.21 -25.15,47.7 -4.67,8.24 -14.69,13.32 -24.06,10.66 -9,-1.79 -14.38,-10.11 -17.58,-18.04 -5.58,-13.18 -10.86,-26.48 -16.52,-39.63 -3.28,-7.13 -5.34,-15.29 -11.18,-20.86 -5.57,-4.07 -12.93,-3.92 -19.15,-6.57 2.75,-3.7 6.15,-6.92 8.27,-11.05 1.35,0.09 2.71,0.2 4.08,0.33 4.5,0.65 9.15,0.53 13.56,1.76 4.34,1.49 6.42,5.92 7.85,9.94 3.64,10.56 7.55,21.03 11.49,31.48 3.14,7.5 6.51,15.03 11.33,21.63 4.19,5.83 11.61,9.38 18.8,8 7.35,-1.2 12.74,-7.09 16.48,-13.14 9.09,-14.64 15.47,-30.71 22.73,-46.28 2.01,-4.3 5.4,-8.95 10.6,-9.18 16.37,-0.89 32.84,-0.25 49.16,-2.04 z"
       id="path61" />
  </g>
</svg>
