<?xml version="1.0" encoding="UTF-8" standalone="no"?>
<svg
   width="664.24414pt"
   height="651.84241pt"
   viewBox="0 0 664.24414 651.8424"
   version="1.1"
   id="svg64"
   sodipodi:docname="icon_monochrome.svg"
   inkscape:version="1.1.2 (0a00cf5339, 2022-02-04)"
   xmlns:inkscape="http://www.inkscape.org/namespaces/inkscape"
   xmlns:sodipodi="http://sodipodi.sourceforge.net/DTD/sodipodi-0.dtd"
   xmlns="http://www.w3.org/2000/svg"
   xmlns:svg="http://www.w3.org/2000/svg">
  <defs
     id="defs68" />
  <sodipodi:namedview
     id="namedview66"
     pagecolor="#ffffff"
     bordercolor="#666666"
     borderopacity="1.0"
     inkscape:pageshadow="2"
     inkscape:pageopacity="0.0"
     inkscape:pagecheckerboard="0"
     inkscape:document-units="pt"
     showgrid="false"
     fit-margin-top="0"
     fit-margin-left="0"
     fit-margin-right="0"
     fit-margin-bottom="0"
     inkscape:zoom="0.19255432"
     inkscape:cx="-791.98431"
     inkscape:cy="12.983349"
     inkscape:window-width="1920"
     inkscape:window-height="999"
     inkscape:window-x="0"
     inkscape:window-y="0"
     inkscape:window-maximized="1"
     inkscape:current-layer="svg64" />
  <g
     id="#dceefdff"
     transform="translate(-176.09441,-187.84845)"
     style="fill:#000000;fill-opacity:1">
    <path
       id="path2"
       style="fill:#000000;fill-opacity:1;stroke-width:1.33333"
       d="M 225.62695,0.00195313 C 217.28839,0.11497396 208.82917,4.2459117 204.6875,11.642578 c -5.57333,9.8 -6.11956,21.519531 -5.21289,32.519531 1.84,17.56 6.52034,34.67948 9.01367,52.132813 0.92,5.639998 -0.28117,11.959788 -5.20117,15.453128 -17.41333,13.94666 -34.45263,28.4275 -50.2793,44.1875 -4.73333,4.81333 -8.77323,10.42643 -11.22656,16.75976 -3.06667,8.10667 -2.08099,17.97268 3.65234,24.66602 5.96,7 14.97302,10.25458 23.67969,12.28125 16.25333,3.65333 32.89508,4.92005 49.45508,6.38672 -1.82667,-0.17334 -3.64141,-0.32141 -5.44141,-0.44141 -2.82666,5.50667 -7.35872,9.80104 -11.02539,14.73438 -69.68,92.93333 -96.14659,216.26557 -72.91992,329.8789 9.37333,44 25.82513,86.70797 50.0918,124.66797 26.50666,40.48 60.93458,76.23935 102.28125,101.66602 43.4,27.24 92.93294,44.13408 143.59961,51.10742 52.50666,7.01333 106.31968,3.74583 157.67968,-9.1875 40.53334,-10.69334 80.02636,-26.17211 115.67969,-48.41211 18.54667,-11.37333 36.46643,-24.53461 49.75977,-41.97461 14.44,-18.01333 21.08026,-41.69294 18.93359,-64.59961 -2.06667,-19.21333 -9.947,-37.93391 -23.01367,-52.25391 -14.34667,-15.89333 -33.91938,-27.19898 -55.05274,-30.95898 -18.45333,-3.64 -37.81223,-0.73469 -54.8789,6.94531 -17.58667,7.84 -32.69378,20.09352 -49.78711,28.85352 -33.54667,18.01333 -71.90625,26.60166 -109.90625,25.375 -27.98667,-1.06667 -56.28044,-7.25417 -80.78711,-21.1875 -13.6,-7.74667 -26.08047,-17.74732 -35.48047,-30.33399 12.93333,-9.21333 26.11966,-18.06604 38.98633,-27.35937 -11.82618,-19.7461 0,0 -11.82617,-19.7461 -13.10667,9.48 -26.65302,18.33198 -39.67969,27.94532 -5.72,-8.06667 -9.69289,-17.17271 -13.21289,-26.35938 -5.4,-14.4 -9.18685,-29.42575 -10.85352,-44.73242 -4.65333,-35.72 -1.34778,-72.57439 10.18555,-106.73437 8,-22.96 20.59984,-44.77376 38.83984,-61.09376 14.44,-13.34665 32.01407,-22.91927 50.41407,-29.58593 31.12,-10.86667 64.85312,-13.79982 97.45312,-9.14649 26.76,3.93334 52.3594,14.1855 75.05274,28.79883 15.14666,9.84 30.34768,20.36102 48.04101,25.04102 37.61334,11.2 81.30555,-4.58615 103.18555,-37.13282 15.77333,-22.37333 20.33323,-51.8945 13.22656,-78.20117 -5.64,-18.96 -17.87963,-35.35867 -32.29297,-48.63867 -35.16,-31.18667 -78.62528,-51.44075 -123.25195,-65.10742 -55.54667,-16.49333 -114.5481,-23.77289 -172.13477,-15.21289 -6.93333,0.97333 -13.72002,2.77338 -20.69336,3.38672 -1.69333,-3.56 -0.23901,-7.54783 0.34766,-11.20118 3.28,-13.279985 7.34651,-26.345594 10.83984,-39.572261 2.32,-9.453333 4.67881,-19.25401 3.10547,-29.027343 -1.10666,-8.28 -5.18578,-16.50573 -12.42578,-21.039063 -8.46666,-5.733333 -19.49325,-5.6275512 -28.91992,-2.574219 -19.66667,6.2 -37.97242,15.852631 -56.73242,24.279297 -6.22667,2.72 -13.58758,6.17513 -20.26758,2.841797 -16.81333,-8.6 -32.54727,-19.133802 -48.94727,-28.480469 C 248.0869,6.4558602 239.18164,1.3611719 229.18164,0.20117188 228.00831,0.05117186 226.81818,-0.01419271 225.62695,0.00195313 Z M 516.82422,22.121094 c -1.54146,0.01583 -3.08583,0.360755 -4.5625,1.107422 -4.56,2.173333 -6.69453,7.214453 -7.89453,11.814453 -2.16,9.746666 -0.69388,20.118203 3.43945,29.158203 2.38667,4.973333 6.26768,10.013333 12.04102,11 4.41333,0.92 8.57346,-2.104974 10.46679,-5.931641 6.45334,-12.506666 6.4393,-28.681067 -1.7207,-40.427734 -2.56,-3.86 -7.14516,-6.768203 -11.76953,-6.720703 z m 58.80469,15.964844 c -5.49834,0.56 -10.92227,2.228776 -15.82227,4.662109 -10.32,4.88 -19.55878,13.2275 -23.41211,24.1875 -1.93333,5.52 0.25245,11.212969 2.42578,16.292969 -4.74666,3.413333 -9.51903,6.800755 -14.3457,10.107422 0.0133,0.573333 0.0534,1.719635 0.0801,2.292968 0.50666,0.666667 1.51872,1.987292 2.02539,2.640625 5.52,-2.426666 10.60073,-5.734323 15.41406,-9.347656 3.4,2.413333 6.9863,4.947578 11.29297,5.267578 13.8,1.32 28.01336,-5.467005 35.69336,-17.013672 5.21333,-7.866666 8.60086,-17.02638 9.88086,-26.373047 0.72,-4.746666 -2.58761,-9.187369 -6.96094,-10.720703 -5.2,-2.006666 -10.77315,-2.556094 -16.27148,-1.996093 z m 130.36132,15.923828 c -0.725,0.111458 -1.42583,0.338882 -2.0625,0.685546 -4,3.906667 -5.01315,9.960105 -9.14648,13.773438 -5.26667,2.84 -13.45396,2.119323 -15.64063,8.972656 1.57336,4.573334 5.39928,7.561276 8.58594,10.97461 3.28,3.573333 1.73477,8.773151 2.13477,13.146484 -0.42667,3.78667 3.83937,6.87859 7.35937,5.55859 3.66667,-1.28 6.89422,-3.51976 10.57422,-4.75976 5.65334,-0.33334 10.58623,3.48088 16.21289,3.57422 2.37334,-0.57334 4.80039,-1.84107 5.40039,-4.42774 0.48,-4.453327 -1.80153,-8.839633 -0.9082,-13.292966 1.89333,-4.413334 5.7068,-7.678542 7.4668,-12.171875 1.08,-2.813334 -0.85336,-6.133854 -3.69336,-6.867188 -3.73334,-1.066666 -7.69177,-0.853594 -11.39844,-1.933593 -4.45333,-2.306669 -5.34685,-7.907501 -8.85352,-11.1875 -1.47,-1.670001 -3.85625,-2.379297 -6.03125,-2.044922 z m -384.2207,27.216796 c 4.93178,0.05085 9.87927,2.205912 13.71094,5.267579 10.28,7.706666 14.5075,21.932209 11.1875,34.185549 -1.62667,6.26666 -6.73451,11.73333 -13.20117,13 -7.86667,1.74666 -16.14638,-1.80003 -21.37305,-7.69336 -6.8,-7.69334 -10.84089,-18.46542 -8.57422,-28.718752 1.29333,-6.346667 5.49396,-12.266693 11.64063,-14.693359 2.12916,-0.958334 4.36766,-1.370767 6.60937,-1.347657 z m -68.02734,43.533208 c 11.88396,0.1533 22.08372,10.70942 25.52539,21.74609 3.06666,9.13333 1.66703,20.80135 -6.29297,27.05469 -5.73333,5.02666 -14.34693,4.73302 -20.93359,1.67968 -12.65334,-6.02666 -19.77443,-21.24018 -17.1211,-34.85351 1.34667,-6.98667 6.77396,-13.06736 13.64063,-15.02734 1.75166,-0.43167 3.48393,-0.62152 5.18164,-0.59961 z m 85.53906,26.57421 c 4.56,5.10667 4.29333,12.50516 3,18.78516 -1.94667,9.89333 -10.58771,18.44039 -20.73437,19.40039 -9.52,1.13333 -18.81386,-3.54575 -24.86719,-10.73242 1.10666,-1.14667 2.18781,-2.34724 3.50781,-3.25391 12.76,-8.49333 26.02708,-16.18588 39.09375,-24.19922 z M 31.199219,219.76172 c -1.029167,0.0752 -2.05125,0.33617 -3.03125,0.82617 -2.16,0.81333 -3.8275,2.77341 -4.1875,5.08008 -1.493334,6.61333 -1.546328,13.62667 -3.986328,20 -4.8,6.06667 -12.1873702,9.16005 -17.7207035,14.38672 -3.12,2.69333 -3.05234385,8.29437 0.3476563,10.73437 6.0666665,4.16 14.0796872,4.71901 19.6796872,9.65235 4.253334,5.72 4.492735,13.25403 7.052735,19.7207 1.946666,4.30667 8.240182,5.89242 11.853515,2.73242 4.76,-4.13333 8.293776,-9.67898 13.78711,-12.95898 6.92,-3.33334 14.772474,-1.48065 22.11914,-2.33399 4.2,-0.41333 7.453284,-4.60044 6.613281,-8.78711 -0.946666,-7.17333 -6.840052,-12.70573 -7.386718,-20.03906 -0.106667,-7.38667 4.693359,-13.85289 4.693359,-21.21289 0.226667,-4.13333 -3.986693,-6.76078 -7.693359,-6.80078 -5.853334,0.34667 -11.586459,1.88018 -17.453125,1.85351 -6.653334,-0.30666 -11.266485,-5.72054 -16.146485,-9.56054 -2.3,-2.06 -5.453515,-3.5186 -8.541015,-3.29297 z M 803.12695,331.4375 c -1.43729,0.002 -2.87896,0.31424 -4.26562,1.01758 -4.65334,2.12 -6.64,7.30786 -8,11.89453 -2.12,8.46667 -1.12099,17.53276 1.65234,25.74609 2.25334,6.01334 6.20123,12.26578 12.58789,14.42578 5.50667,1.41334 10.61344,-2.7732 12.77344,-7.5332 5.41333,-12.58667 4.77177,-28.17237 -3.60156,-39.3457 -2.57,-3.42 -6.83461,-6.21071 -11.14649,-6.20508 z m 60.79493,16.41992 c -6.30928,0.35974 -12.57915,2.17188 -18.18165,4.98438 -9.26666,4.73333 -18.27971,11.3863 -22.37304,21.29297 -2.74667,5.96 -1.55977,13.10731 2.24023,18.33398 -5.26666,3.76 -10.77325,7.18742 -15.91992,11.10742 -2.10667,1.12 -1.17333,3.57245 -1,5.42578 1.96,0.0533 4.23951,0.66607 5.82617,-0.94726 4.61334,-3.41334 9.54649,-6.35917 14.14649,-9.8125 12.4,9.70666 30.93489,5.30666 41.60156,-5 8.82667,-8.74667 13.63997,-20.89274 15.30664,-33.05274 0.72,-4.72 -2.92177,-8.84031 -7.14844,-10.32031 -2.66333,-0.96667 -5.41422,-1.57797 -8.19922,-1.87109 -2.08875,-0.21985 -4.19574,-0.26054 -6.29882,-0.14063 z m -120.61329,99.64453 c -1.06,0.13396 -2.09755,0.45586 -3.07421,1.00586 -3.16,1.45334 -4.82774,4.74701 -5.42774,8.01367 -1.56,7.65334 -2.21255,15.60053 -5.19922,22.86719 -5.84,7.13334 -14.56031,11.0675 -21.32031,17.1875 -4.49333,3.90667 -3.96037,12.17222 1.29297,15.18555 7.54666,4.54667 17.25476,5.97401 23.13476,13.02734 4.29334,7.65334 5.55927,16.53336 8.58594,24.69336 1.85333,5.62667 9.64094,7.15946 13.96094,3.43946 6.57333,-5.45336 11.43904,-13.09386 19.3457,-16.86719 6.13334,-1.01334 12.37294,-1.71946 18.59961,-1.43946 3.77333,0 7.99956,0.45435 11.21289,-1.95898 3.58667,-2.29333 5.09427,-7.04169 3.96094,-11.06836 -2.6,-8.17333 -8.37273,-15.33307 -9.05274,-24.06641 0.88,-8.30666 5.11972,-15.81239 6.37305,-24.03906 0.78667,-5.08 -3.49406,-9.88021 -8.41406,-10.54687 -8.06667,-0.94667 -16.10615,2.70622 -24.13281,1.21289 -7.90667,-2.86667 -14.30745,-8.59943 -20.80078,-13.7461 -2.49,-2 -5.86493,-3.30226 -9.04493,-2.90039 z M 46.015625,462.55078 c -0.611849,0.10599 -1.247344,0.32974 -1.902344,0.69141 -4.026666,3.05333 -5.945963,8.21393 -10.279297,10.94726 -3.906666,2.22667 -8.866432,0.86683 -12.759765,3.16016 -2.066667,1.26667 -2.720783,4.13331 -1.800781,6.30664 1.626666,3.6 4.494244,6.45299 6.267578,9.98633 1.12,4.81333 -1.02698,9.72021 -0.320313,14.54687 0.44,3.04 3.813362,4.97341 6.693359,4.08008 4.76,-0.86667 9.732527,-4.08081 14.50586,-1.49414 4.013333,1.18667 8.867786,5.84024 12.814453,2.24023 4.586667,-3.57332 1.519505,-9.78721 2.826172,-14.56054 2.466667,-4.37334 7.199713,-7.05235 9.373047,-11.65235 1.026666,-2.82666 -0.825521,-5.72002 -3.492188,-6.69335 -4.853333,-2.44001 -12.25388,-2.96006 -13.560547,-9.38672 -0.933333,-3.885 -4.082291,-8.91381 -8.365234,-8.17188 z M 28.507812,585.5918 c -1.398958,-0.0727 -2.820703,0.0893 -4.220703,0.52929 -5.44,1.94667 -8.267109,7.65386 -9.787109,12.86719 -2.76,10.38667 -1.239922,21.64039 3.080078,31.40039 2.573333,5.57334 6.707604,11.22651 12.960938,12.83985 5.493333,1.18666 10.626849,-2.83961 12.853515,-7.59961 6.306667,-14.01334 5.998985,-31.94717 -4.041015,-44.17383 -2.65,-3.31 -6.648827,-5.64516 -10.845704,-5.86328 z m 64.81836,18.87695 c -5.191667,0.24667 -10.344531,1.34758 -15.144531,3.26758 -12.066667,5.01333 -24.266849,13.10497 -28.853516,25.93164 -2.466667,6.44 -1.081432,13.53388 1.865234,19.56055 -5.8,4.49333 -13.239453,7.48096 -17.439453,13.65429 1.333334,1.25334 2.359427,4.13162 4.746094,3.23828 5.72,-3.74666 11.401016,-7.58484 17.041016,-11.46484 8.866666,8.49333 22.732474,6.55956 33.11914,2.21289 16.680004,-7.66667 25.094654,-26.17312 27.667964,-43.45312 1.08,-5.10667 -2.89361,-9.80042 -7.62695,-11.09375 -4.95333,-1.49334 -10.183331,-2.10019 -15.374998,-1.85352 z m 54.576168,183.94727 c -1.55562,-0.0217 -3.12763,0.25591 -4.65429,0.89257 -3.73334,1.84 -6.01485,5.64081 -7.21485,9.49414 -2.94666,8.86667 -2.10635,18.49339 0.32032,27.38672 2.02666,6.81334 6.0682,13.8931 12.9082,16.75977 5.12,2.09333 10.73333,-1.16018 13,-5.85352 6.70667,-13.01333 6.09219,-29.9476 -2.50781,-41.96093 -2.67,-3.89 -7.18469,-6.65375 -11.85157,-6.71875 z m 591.71289,14.19921 c -0.62395,0.10266 -1.27875,0.33404 -1.96875,0.72071 -5.02666,3.89333 -3.31882,12.69323 -9.79882,15.22656 -3.61334,2.16 -9.57326,3.25203 -9.91993,8.33203 -0.65333,4.73333 4.67946,6.44083 7.43946,9.1875 5.68,4.4 1.07974,13.83925 7.0664,17.89258 6.84,2.50667 11.25425,-7.34581 18.26758,-5.11914 4.70667,0.29333 10.96047,3.99982 14.48047,-0.85352 3.41333,-5.68 -4.46713,-11.93362 -0.48047,-17.62695 1.8,-4.77333 8.26573,-10.84047 3.03906,-15.48047 -5.54666,-2.81333 -13.46557,0.72091 -17.8789,-4.73242 -3.01,-2.68333 -5.87839,-8.26547 -10.2461,-7.54688 z m -522.76367,3.21094 c -4.09666,-0.27166 -8.25747,0.0556 -12.24414,0.70899 -15.06666,3.56 -29.62742,12.94773 -36.10742,27.42773 -2.77333,6.21333 -1.15888,13.21206 1.81445,19.02539 -5.50666,4.14667 -11.87994,7.26732 -16.61328,12.33399 0.48,0.94666 1.43992,2.82677 1.91992,3.77343 1.82667,0.0267 3.85331,0.23891 5.30664,-1.12109 4.44,-3.14667 8.89297,-6.2668 13.29297,-9.4668 3.46667,2.93334 7.64024,5.14722 12.24024,5.56055 13.01333,1.32 26.30586,-4.62703 34.50586,-14.70703 7.01333,-8.74667 11.29403,-19.58568 12.7207,-30.65235 0.58667,-3.94666 -1.19932,-8.34666 -4.97266,-10 -3.73333,-1.74 -7.76661,-2.61114 -11.86328,-2.88281 z"
       transform="matrix(0.75,0,0,0.75,176.09441,187.84845)"
       sodipodi:nodetypes="sccccccccccccccccccccccccccccccccccccccccccccccccccccssccccccsscccccccccccssccccccccccccccssccccccscccccccccccccsccccccccccccccccssccccccssccccccccccssscccccccccccccccccsscccccccccccccssccccccsscccccccccssccccccssccccccccccsscccccccccccs" />
    <path
       fill="#dceefd"
       opacity="1"
       d="m 416.51,263.61 c 2.84,-1.24 5.91,1.44 5.8,4.36 0.44,2.75 -2.87,5.02 -5.28,3.64 -3.05,-1.33 -3.86,-6.51 -0.52,-8 z"
       id="path4"
       style="fill:#000000;fill-opacity:1" />
    <path
       fill="#dceefd"
       opacity="1"
       d="m 365.25,296.15 c 4.55,-2.52 9,5.12 4.69,7.84 -4.67,2.69 -8.97,-4.99 -4.69,-7.84 z"
       id="path6"
       style="fill:#000000;fill-opacity:1" />
  </g>
  <g
     id="#1a1c1fff"
     transform="translate(-176.09441,-187.84845)"
     style="fill:#000000;fill-opacity:1">
    <path
       fill="#1a1c1f"
       opacity="1"
       d="m 580.21,250.27 c 7.19,-4.44 13.83,-9.7 20.99,-14.2 0.75,1.4 2.75,3.54 0.77,4.8 -6.26,4.81 -13.13,8.82 -19.38,13.67 -3.61,2.71 -7.42,5.19 -11.56,7.01 -0.38,-0.49 -1.14,-1.48 -1.52,-1.98 -0.02,-0.43 -0.05,-1.29 -0.06,-1.72 3.62,-2.48 7.2,-5.02 10.76,-7.58 z"
       id="path41"
       style="fill:#000000;fill-opacity:1" />
    <path
       fill="#1a1c1f"
       opacity="1"
       d="m 795.3,482.2 c 7.02,-4.58 13.74,-9.61 20.81,-14.12 0.74,1.37 2.89,3.49 0.87,4.73 -6.33,4.75 -12.9,9.19 -19.39,13.72 -3.45,2.59 -7.15,4.8 -10.61,7.36 -1.19,1.21 -2.9,0.75 -4.37,0.71 -0.13,-1.39 -0.83,-3.23 0.75,-4.07 3.86,-2.94 7.99,-5.51 11.94,-8.33 z"
       id="path49"
       style="fill:#000000;fill-opacity:1" />
    <path
       fill="#1a1c1f"
       opacity="1"
       d="m 214.49,677.77 c 8.04,-5.09 15.14,-11.67 23.64,-16.02 0.72,1.49 2.74,3.66 0.52,4.89 -6.69,5.43 -13.95,10.11 -20.9,15.2 -4.23,2.91 -8.49,5.79 -12.78,8.6 -1.79,0.67 -2.56,-1.49 -3.56,-2.43 3.15,-4.63 8.73,-6.87 13.08,-10.24 z"
       id="path53"
       style="fill:#000000;fill-opacity:1" />
    <path
       fill="#1a1c1f"
       opacity="1"
       d="m 303.83,827.59 c 7.95,-4.51 14.71,-10.93 22.97,-14.87 0.44,1.19 2.74,2.8 1.07,3.98 -6.72,5.43 -14.16,9.9 -21.11,15.03 -3.3,2.4 -6.64,4.74 -9.97,7.1 -1.09,1.02 -2.61,0.86 -3.98,0.84 -0.36,-0.71 -1.08,-2.12 -1.44,-2.83 3.55,-3.8 8.33,-6.14 12.46,-9.25 z"
       id="path55"
       style="fill:#000000;fill-opacity:1" />
  </g>
  <g
     id="#57a0f7ff"
     transform="translate(-176.09441,-187.84845)"
     style="fill:#000000;fill-opacity:1" />
  <g
     id="#437ec3ff"
     transform="translate(-176.09441,-187.84845)"
     style="fill:#000000;fill-opacity:1" />
  <path
     id="path30"
     style="stroke-width:0.999997"
     d="m 427.10302,290.49314 c -1.42373,-0.008 -2.84179,0.007 -4.24804,0.0381 -19.96,0.3 -39.46963,6.04053 -57.61963,14.04054 -19.62,9.09 -38.09014,21.12974 -53.14014,36.73974 -11.83999,12.16 -21.82029,26.90934 -25.05029,43.81934 -1.65,9.72 -2.02922,20.29119 2.05078,29.47119 3.145,-2.31 6.32451,-4.56977 9.52295,-6.80273 6.39688,-4.46595 12.86582,-8.82856 19.2627,-13.292 3.19843,-2.23172 6.37941,-4.48791 9.52441,-6.79541 15.98,-11.41 32.22914,-22.45013 48.36914,-33.64013 0.4125,-0.3225 0.85625,-0.60264 1.32129,-0.83936 0.46504,-0.23672 0.95234,-0.43008 1.45312,-0.58008 1.00157,-0.3 2.05733,-0.42604 3.10108,-0.37354 0.52187,0.0263 1.04111,0.0966 1.54834,0.2124 0.50722,0.11579 1.00225,0.27716 1.47802,0.48341 0.47579,0.20625 0.93184,0.4582 1.35938,0.75586 0.42754,0.29765 0.82696,0.64125 1.18945,1.03125 2.62,2.64 2.94955,6.97002 1.53955,10.27002 -2.1,3.27 -5.79962,4.94964 -8.86963,7.13964 -10.89999,7.40001 -21.70017,14.93936 -32.43017,22.58936 -16.42,11.67 -33.17,22.86088 -49.5,34.65088 9.8,10.97 24.62924,15.98951 38.96924,16.99951 17.35,0.72 34.67107,-3.59965 50.35107,-10.88965 31.26,-14.34 57.37905,-40.06035 71.26905,-71.61035 6,-14.08 10.36053,-29.28022 9.54052,-44.72022 -0.42,-8.7 -4.53967,-17.52939 -12.15967,-22.12939 -8.61,-5.285 -18.8664,-6.51162 -28.83252,-6.56836 z" />
</svg>
